<svg xmlns="http://www.w3.org/2000/svg" viewBox="0 0 192 192" shape-rendering="crispEdges"><rect width="192" height="192" fill="#06100c"/><rect x="8" y="8" width="176" height="176" fill="#102d21" stroke="#d4aa58" stroke-width="8"/><path d="M42 117c20-67 87-76 111-38-20-18-52-12-56 11 28-15 52 9 42 35-8-17-29-17-39-3 5 28-23 45-47 28 18-3 29-18 23-34-8 12-22 18-34 13z" fill="#48cf78"/><rect x="88" y="42" width="16" height="90" fill="#f1d27d"/><rect x="60" y="82" width="72" height="16" fill="#f1d27d"/><text x="96" y="174" text-anchor="middle" font-family="serif" font-size="28" fill="#d4aa58">龍</text></svg>